# xmcd
#
# Track frame offsets:
#	150
#	13385
#	28089
#	41749
#	55250
#	74682
#	87208
#	100903
#	118660
#	136217
#	149391
#	164793
#
# Disc length: 2386 seconds
#
# Revision: 1
# Processed by: cddbd v1.5.2PL0 Copyright (c) Steve Scherf et al.
# Submitted via: audiograbber 1.80
#
DISCID=b509500c
DTITLE=Nicolai - Nicolai
DYEAR=1900
DGENRE=
TTITLE0=kom med mig
TTITLE1=vokseværk
TTITLE2=den jeg er
TTITLE3=når du danser for mig
TTITLE4=drømme pigen
TTITLE5=mit nye move
TTITLE6=tro på dig selv
TTITLE7=magi
TTITLE8=mere end din ven
TTITLE9=hvad nu hvis
TTITLE10=luk mig ind
TTITLE11=shake shake shake (remix)
EXTD=
EXTT0=
EXTT1=
EXTT2=
EXTT3=
EXTT4=
EXTT5=
EXTT6=
EXTT7=
EXTT8=
EXTT9=
EXTT10=
EXTT11=
PLAYORDER=
